<svg width="45" height="45" viewBox="0 0 45 45" fill="none" xmlns="http://www.w3.org/2000/svg">
<g clip-path="url(#clip0_41536_88)">
<path d="M25.5368 20.4902L25.218 21.3555L4.73757 33.3376L3.06738 33.4567L3.80979 32.5164L24.7947 20.4902H25.5368Z" fill="#424242"/>
<path d="M42.6795 30.8463C42.674 30.5785 42.5395 30.313 42.2744 30.16L25.526 20.4902L3.06738 33.4568C3.06738 34.4793 3.61283 35.4241 4.49842 35.9354L19.4752 44.5822C20.44 45.1393 21.6287 45.1392 22.5934 44.5822L41.0323 33.9362C42.0522 33.3472 42.6807 32.259 42.6807 31.0812V30.8458L42.6795 30.8463Z" fill="#E8EDEF"/>
<path d="M42.2744 31.5669L22.5933 42.9299C21.6286 43.4868 20.4399 43.4868 19.4752 42.9299L3.06738 33.4567C3.06738 34.4793 3.61283 35.4241 4.49842 35.9353L19.4752 44.5822C20.44 45.1393 21.6287 45.1392 22.5934 44.5822L41.0323 33.9362C42.0522 33.3472 42.6807 32.259 42.6807 31.0811V30.8635C42.6806 31.137 42.5452 31.4106 42.2744 31.5669Z" fill="#C8CED6"/>
<path d="M42.6795 30.8463C42.6796 30.8518 42.6811 30.8572 42.6811 30.8627V30.8457L42.6795 30.8463Z" fill="#D1D1D1"/>
<path d="M7.51685 30.8393L9.5465 32.0251L23.0386 24.2297L21.0249 23.0765L7.51685 30.8393Z" fill="#212938"/>
<path d="M10.839 32.7579L8.03778 34.3834V34.5336L9.10671 35.1522L11.9184 33.5392V33.3776L10.839 32.7579Z" fill="#284363"/>
<path d="M9.11339 35.0033L8.03778 34.3834V34.5336L9.10671 35.1522L11.9184 33.5392V33.3776L9.11339 35.0033Z" fill="#212938"/>
<path d="M12.2582 33.5675L9.45694 35.193V35.3432L10.939 36.205L13.7507 34.592V34.4303L12.2582 33.5675Z" fill="#284363"/>
<path d="M10.9456 36.056L9.45694 35.1929V35.3431L10.939 36.205L13.7507 34.5919V34.4303L10.9456 36.056Z" fill="#212938"/>
<path d="M15.4081 31.7578L12.6068 33.3832V33.5334L14.0889 34.3952L16.9006 32.7822V32.6205L15.4081 31.7578Z" fill="#284363"/>
<path d="M14.0955 34.2462L12.6068 33.3831V33.5333L14.0889 34.3952L16.9006 32.7821V32.6205L14.0955 34.2462Z" fill="#212938"/>
<path d="M18.3348 32.1824L15.5335 33.8078V33.9579L17.0156 34.8199L19.8273 33.2067V33.0451L18.3348 32.1824Z" fill="#284363"/>
<path d="M17.0222 34.6708L15.5335 33.8078V33.9579L17.0156 34.8198L19.8273 33.2067V33.045L17.0222 34.6708Z" fill="#212938"/>
<path d="M20.5602 33.002L17.7589 34.6274V34.7776L19.2409 35.6395L22.0526 34.0263V33.8648L20.5602 33.002Z" fill="#284363"/>
<path d="M19.2476 35.4905L17.7589 34.6274V34.7776L19.2409 35.6394L22.0526 34.0263V33.8647L19.2476 35.4905Z" fill="#212938"/>
<path d="M23.693 31.1976L20.8917 32.8231V32.9733L22.3738 33.8351L25.1854 32.222V32.0605L23.693 31.1976Z" fill="#284363"/>
<path d="M22.3804 33.6863L20.8917 32.8232V32.9734L22.3738 33.8352L25.1854 32.2221V32.0605L22.3804 33.6863Z" fill="#212938"/>
<path d="M26.8911 29.3644L24.0898 30.9898V31.14L25.5719 32.0019L28.3836 30.3887V30.2272L26.8911 29.3644Z" fill="#284363"/>
<path d="M25.5785 31.853L24.0898 30.9899V31.1401L25.5719 32.002L28.3836 30.3888V30.2273L25.5785 31.853Z" fill="#212938"/>
<path d="M21.4829 30.3646L18.6817 31.99V32.1402L20.1637 33.002L22.9754 31.389V31.2274L21.4829 30.3646Z" fill="#284363"/>
<path d="M20.1704 32.853L18.6817 31.9899V32.1401L20.1637 33.002L22.9754 31.3889V31.2273L20.1704 32.853Z" fill="#212938"/>
<path d="M24.6531 28.5228L21.8518 30.1483V30.2985L23.3338 31.1603L26.1455 29.5472V29.3856L24.6531 28.5228Z" fill="#284363"/>
<path d="M23.3405 31.0113L21.8518 30.1482V30.2985L23.3338 31.1603L26.1455 29.5472V29.3856L23.3405 31.0113Z" fill="#212938"/>
<path d="M27.8295 26.7227L25.0283 28.3481V28.4982L26.5103 29.3601L29.322 27.747V27.5854L27.8295 26.7227Z" fill="#284363"/>
<path d="M26.517 29.2112L25.0283 28.3482V28.4983L26.5103 29.3601L29.322 27.7471V27.5854L26.517 29.2112Z" fill="#212938"/>
<path d="M18.5462 29.9534L15.7449 31.5788V31.729L17.2269 32.5909L20.0386 30.9777V30.8162L18.5462 29.9534Z" fill="#284363"/>
<path d="M17.2336 32.4419L15.7449 31.5788V31.729L17.2269 32.5909L20.0386 30.9777V30.8162L17.2336 32.4419Z" fill="#212938"/>
<path d="M21.7043 28.1202L18.9031 29.7456V29.8958L20.3851 30.7577L23.1968 29.1446V28.983L21.7043 28.1202Z" fill="#284363"/>
<path d="M20.3918 30.6087L18.9031 29.7457V29.8959L20.3851 30.7577L23.1968 29.1447V28.983L20.3918 30.6087Z" fill="#212938"/>
<path d="M24.8649 26.2913L22.0636 27.9167V28.0669L23.5457 28.9288L26.3574 27.3156V27.1541L24.8649 26.2913Z" fill="#284363"/>
<path d="M23.5523 28.7798L22.0636 27.9167V28.0669L23.5457 28.9287L26.3574 27.3156V27.1541L23.5523 28.7798Z" fill="#212938"/>
<path d="M28.0193 24.4767L25.218 26.1021V26.2523L26.7001 27.1142L29.5117 25.5011V25.3395L28.0193 24.4767Z" fill="#284363"/>
<path d="M26.7068 26.9652L25.218 26.1021V26.2523L26.7001 27.1142L29.5117 25.501V25.3395L26.7068 26.9652Z" fill="#212938"/>
<path d="M16.6723 34.8616L15.1799 33.9989L11.2787 36.2544V36.4046L12.7607 37.2665L16.6723 35.025V34.8634V34.8616Z" fill="#284363"/>
<path d="M11.2787 36.2544V36.4047L12.7607 37.2665L16.6723 35.025V34.8634L12.7673 37.1175L11.2787 36.2544Z" fill="#212938"/>
<path d="M18.905 35.7059L17.4156 34.8448L13.1218 37.33V37.4802L14.6039 38.3421L18.908 35.8657V35.7042L18.905 35.7059Z" fill="#284363"/>
<path d="M13.1218 37.33V37.4802L14.6039 38.3421L18.908 35.8657V35.7076L14.6106 38.1931L13.1218 37.33Z" fill="#212938"/>
<path d="M18.905 35.7058L18.9079 35.7075V35.7041L18.905 35.7058Z" fill="#292929"/>
<path d="M17.7521 36.7495L14.9508 38.375V38.5252L16.4328 39.387L19.2445 37.7739V37.6123L17.7521 36.7495Z" fill="#284363"/>
<path d="M16.4395 39.238L14.9508 38.3749V38.5251L16.4328 39.387L19.2445 37.7738V37.6123L16.4395 39.238Z" fill="#212938"/>
<path d="M20.9028 34.9299L18.1016 36.5553V36.7055L19.5836 37.5674L22.3953 35.9542V35.7927L20.9028 34.9299Z" fill="#284363"/>
<path d="M19.5903 37.4184L18.1016 36.5554V36.7056L19.5836 37.5674L22.3953 35.9543V35.7927L19.5903 37.4184Z" fill="#212938"/>
<path d="M30.336 29.4601L21.2432 34.7363V34.8865L22.7252 35.7484L31.8284 30.4844V30.3229L30.336 29.4601Z" fill="#284363"/>
<path d="M22.7319 35.5995L21.2432 34.7364V34.8866L22.7252 35.7485L31.8284 30.4845V30.323L22.7319 35.5995Z" fill="#212938"/>
<path d="M33.5058 27.655L30.7045 29.2804V29.4306L32.1866 30.2925L34.9982 28.6793V28.5178L33.5058 27.655Z" fill="#284363"/>
<path d="M32.1932 30.1435L30.7045 29.2804V29.4307L32.1866 30.2925L34.9982 28.6794V28.5178L32.1932 30.1435Z" fill="#212938"/>
<path d="M13.9773 30.9432L11.1759 32.5687V32.7189L12.2449 33.3376L15.0566 31.7244V31.5629L13.9773 30.9432Z" fill="#284363"/>
<path d="M12.2515 33.1887L11.1759 32.5688V32.719L12.2449 33.3377L15.0566 31.7245V31.563L12.2515 33.1887Z" fill="#212938"/>
<path d="M17.1454 29.1162L14.3441 30.7417V30.8919L15.413 31.5106L18.2248 29.8975V29.7358L17.1454 29.1162Z" fill="#284363"/>
<path d="M15.4197 31.3616L14.3441 30.7417V30.8919L15.413 31.5106L18.2248 29.8975V29.7358L15.4197 31.3616Z" fill="#212938"/>
<path d="M20.3035 27.2891L17.5023 28.9145V29.0647L18.5712 29.6834L21.3829 28.0702V27.9087L20.3035 27.2891Z" fill="#284363"/>
<path d="M18.5779 29.5344L17.5023 28.9145V29.0647L18.5712 29.6834L21.3829 28.0702V27.9087L18.5779 29.5344Z" fill="#212938"/>
<path d="M23.4367 25.472L20.6354 27.0975V27.2476L21.7044 27.8664L24.516 26.2532V26.0917L23.4367 25.472Z" fill="#284363"/>
<path d="M21.711 27.7175L20.6354 27.0976V27.2477L21.7044 27.8665L24.516 26.2533V26.0918L21.711 27.7175Z" fill="#212938"/>
<path d="M26.5933 23.6588L23.7921 25.2843V25.4344L24.861 26.0531L27.6727 24.44V24.2784L26.5933 23.6588Z" fill="#284363"/>
<path d="M24.8677 25.9042L23.7921 25.2843V25.4344L24.861 26.0531L27.6727 24.44V24.2784L24.8677 25.9042Z" fill="#212938"/>
<path d="M33.1726 27.4601L29.8563 25.5306L28.1464 26.5336V26.6838L29.8192 27.6719L27.2161 29.1768L27.2182 29.1792V29.3294L28.7002 30.1912L33.1726 27.6249V27.4634V27.4601Z" fill="#284363"/>
<path d="M22.9754 36.6979L31.0939 32.025L34.7917 34.1438L26.6765 38.841L22.9754 36.6979Z" fill="#C8CED6"/>
<path d="M29.9554 27.5931L28.1465 26.5336V26.6837L29.8192 27.6718L29.9554 27.5931Z" fill="#212938"/>
<path d="M28.7153 30.0462L28.7075 30.0418L28.7069 30.0421L27.2182 29.1791V29.3293L28.7002 30.1911L33.1726 27.6248V27.4633L31.9946 28.1434L28.7153 30.0462Z" fill="#212938"/>
<path d="M25.103 0.428181L25.1041 0.427566L24.7118 0.200457C24.2506 -0.066555 23.6819 -0.0668186 23.2204 0.199666L3.89609 11.3596C2.92033 11.923 2.31924 12.964 2.31924 14.0907V32.1652C2.31924 32.6987 2.60463 33.1913 3.06737 33.4568L25.5369 20.4903V1.14598C25.5368 0.821404 25.354 0.561072 25.103 0.428181Z" fill="#284363"/>
<path d="M3.06737 14.5085C3.06737 13.3947 3.6616 12.3656 4.6262 11.8087L4.6443 11.7982L24.3171 0.441717C24.5781 0.291072 24.8699 0.304783 25.103 0.428181L25.1041 0.427566L24.7118 0.200457C24.2506 -0.066555 23.6819 -0.0668186 23.2204 0.199666L3.89609 11.3596C2.92033 11.923 2.31924 12.964 2.31924 14.0907V32.1652C2.31924 32.6987 2.60463 33.1913 3.06737 33.4568V14.5294V14.5085V14.5085Z" fill="#212938"/>
<path d="M3.80981 13.5678V31.7252L24.7947 19.6196V1.45215L3.80981 13.5678Z" fill="#33AEFF"/>
<g opacity="0.2">
<path opacity="0.2" d="M12.9746 26.4382L23.3218 20.4691L24.7946 16.3685V1.45215L21.204 3.52514L12.9746 26.4382Z" fill="white"/>
</g>
<g opacity="0.2">
<path opacity="0.2" d="M16.8341 6.04834L7.77764 11.277L3.80981 22.3245V31.7253L8.60548 28.9588L16.8341 6.04834Z" fill="white"/>
</g>
<path d="M28.4211 7.83579L24.8936 1.3064L3.80981 13.5657V18.0285L7.34056 20.0834V22.1835C7.34056 23.4378 8.69891 24.2211 9.78462 23.593C10.888 22.9546 11.5675 21.7764 11.5675 20.5016V17.6291L15.7992 15.1721V17.271C15.7992 18.5253 17.1576 19.3088 18.2433 18.6806C19.3467 18.0422 20.0262 16.864 20.0262 15.5892V12.7179L24.2599 10.2597V12.3534C24.2599 13.6077 25.6183 14.391 26.7039 13.7629C27.8073 13.1244 28.4244 11.9864 28.4244 10.7117V7.83386L28.4211 7.83579Z" fill="#F43834"/>
<path d="M15.7971 15.1672L12.2011 8.67749L7.97421 11.1371L11.5743 17.6245V19.7246C11.5743 20.9788 12.9326 21.7623 14.0184 21.1341C15.1217 20.4956 15.8012 19.3174 15.8012 18.0427V15.1648L15.7971 15.1672Z" fill="#E3E3E3"/>
<path d="M20.6597 3.76514L16.4349 6.21869L20.0329 12.7121V14.8122C20.0329 16.0665 21.3912 16.8499 22.477 16.2218C23.5803 15.5833 24.2598 14.4052 24.2598 13.1304V10.2525L20.6597 3.76514Z" fill="#E3E3E3"/>
<path d="M7.34055 20.0834V22.1834C7.34055 23.4377 8.6989 24.2211 9.78461 23.5929C10.888 22.9545 11.5675 21.7763 11.5675 20.5015V17.6237L7.34055 20.0834Z" fill="#C40041"/>
<path d="M11.5744 17.6245V19.7246C11.5744 20.9788 12.9328 21.7623 14.0185 21.1341C15.1219 20.4956 15.8014 19.3175 15.8014 18.0427V15.1648L11.5744 17.6245Z" fill="#C8CED6"/>
<path d="M15.7991 15.1709V17.271C15.7991 18.5253 17.1575 19.3087 18.2432 18.6806C19.3466 18.0421 20.0261 16.864 20.0261 15.5892V12.7113L15.7991 15.1709Z" fill="#C40041"/>
<path d="M24.2599 10.2532V12.3533C24.2599 13.6075 25.6183 14.3909 26.7039 13.7628C27.8073 13.1243 28.4244 11.9863 28.4244 10.7115V7.83374L24.2599 10.2532Z" fill="#C40041"/>
<path d="M20.033 12.7122V14.8123C20.033 16.0666 21.3913 16.85 22.4771 16.2218C23.5804 15.5834 24.2599 14.4052 24.2599 13.1305V10.2526L20.033 12.7122Z" fill="#C8CED6"/>
<path d="M7.34056 20.0834L3.80981 18.0284V13.5657L7.34056 20.0834Z" fill="#C40041"/>
</g>
<defs>
<clipPath id="clip0_41536_88">
<rect width="45" height="45" fill="white"/>
</clipPath>
</defs>
</svg>
