<svg width="130" height="51" viewBox="0 0 130 51" fill="none" xmlns="http://www.w3.org/2000/svg">
<g clip-path="url(#clip0_42438_13)">
<path d="M63.3375 18.0146H59.0757L52.8066 24.0472V12.2514H49.4249V33.1933H52.8066V27.7595L54.8757 25.8734L59.647 33.1933H63.8779L57.3154 23.5681L63.3375 18.0146ZM66.6883 22.685H69.9772C70.2552 20.709 71.228 19.9755 73.467 19.9755C75.6596 19.9755 76.6942 20.709 76.6942 22.2658C76.6942 22.8197 76.6324 23.1789 76.478 23.3586C76.1383 23.7927 75.4435 23.9424 73.0346 24.2417C69.9 24.6309 66.0088 25.0052 66.0088 29.0319C66.0088 31.8311 68.0471 33.5675 71.3052 33.5675C73.3743 33.5675 75.3817 33.0736 76.8023 31.7413C77.0493 33.0586 78.0221 33.5675 79.3501 33.5675C80.0141 33.5675 80.5082 33.5077 81.6045 33.2382V30.8881C81.1722 30.9479 81.0641 30.9479 80.817 30.9479C80.1839 30.9479 79.9986 30.7084 79.9986 29.8253V22.1161C79.9986 18.8528 77.2655 17.5206 73.5596 17.5206C69.7302 17.5505 67.0897 18.9576 66.6883 22.685V22.685ZM76.6633 25.574V27.3703C76.6633 28.2834 76.6942 29.2864 75.9685 29.9899C75.181 30.7533 73.8376 31.2024 72.417 31.2024C70.6258 31.2024 69.5912 30.3791 69.5912 28.9421C69.5912 26.9362 71.4133 26.6518 73.0346 26.4123C74.2545 26.2177 75.5361 26.1877 76.6633 25.574ZM97.2774 22.4305C97.2774 18.9876 94.2972 17.5805 90.7149 17.5805C86.7001 17.5805 84.2913 19.287 84.2913 22.176C84.2913 25.4393 87.1171 25.8884 90.7149 26.7416C92.6913 27.2056 94.4517 27.4751 94.4517 29.0019C94.4517 30.3492 93.1083 31.2024 91.07 31.2024C88.9082 31.2024 87.4568 30.3492 87.2715 28.3433H83.9516C84.1369 31.8162 86.5612 33.6424 91.0083 33.6424C95.2083 33.6424 97.8487 31.6964 97.8487 28.6427C97.8487 25.2896 94.498 24.616 91.7649 24.0022C89.248 23.4484 87.7502 23.3286 87.7502 21.8018C87.7502 20.6791 88.7847 20.0354 90.545 20.0354C92.398 20.0354 93.7105 20.5893 93.9575 22.4454L97.2774 22.4305ZM105.044 18.0146H101.786V38.8068H105.23V31.1874C106.48 32.864 108.21 33.5675 110.341 33.5675C114.572 33.5675 117.305 30.454 117.305 25.6489C117.305 20.739 114.51 17.5655 110.155 17.5655C108.117 17.5655 106.141 18.3289 105.044 20.0354V18.0146ZM109.445 20.2749C112.116 20.2749 113.8 22.3706 113.8 25.6638C113.8 28.8972 112.163 30.903 109.507 30.903C106.743 30.903 105.091 28.8972 105.091 25.6039C105.106 22.2808 106.712 20.2749 109.445 20.2749V20.2749ZM124.964 12.1616H121.505V15.4548H124.964V12.1616ZM124.964 18.0146H121.505V33.1933H124.964V18.0146Z" fill="#F9F6F1"/>
<path d="M9.88241 40.3269C12.2758 30.7017 9.43461 30.3724 9.43461 25.702C9.43461 24.1452 10.7008 20.4179 10.8861 18.6066C11.3184 14.4452 10.253 15.5529 13.3876 12.4693L13.5729 8.1881C15.1479 6.72112 15.9354 5.40383 17.8655 5.86788C19.0391 9.25091 16.8155 8.1881 16.5994 12.14C17.9119 13.8315 18.792 13.9961 19.7803 16.1218C21.031 18.8162 20.1354 18.7863 22.4979 21.0466C25.9722 21.4358 28.0722 21.4508 30.5583 19.0258C30.8208 16.4361 29.2766 16.6607 30.8516 14.2806C31.9325 12.6489 32.998 11.7657 35.0208 12.4244C35.6848 14.9691 32.7046 15.4931 33.6311 18.3222C37.6304 18.7114 38.5568 13.3674 41.6142 13.098C41.6142 18.8012 35.4686 19.5497 35.3296 24.1902C35.237 27.0942 37.8929 35.0877 40.5796 36.7942C42.9421 33.2764 45.49 29.4443 45.7833 25.1931C47.837 -3.81718 8.24563 -9.1013 0.725739 16.3014C0.339708 17.6037 0.108089 18.921 0 20.2383V23.6064C0.663974 31.9592 5.97577 39.2941 9.88241 40.3269V40.3269Z" fill="#EF4635"/>
<path d="M21.4634 44.2189C32.1642 45.4463 31.0369 42.2429 28.9215 30.4323C28.0877 25.7768 27.1149 23.3219 21.417 23.756C17.8655 27.8426 19.6567 35.8062 19.7803 39.294C19.8729 42.0483 19.3942 42.228 21.4634 44.2189V44.2189ZM33.77 41.3747C35.5612 41.1652 35.8701 40.8059 37.3215 39.6832C37.5532 37.3031 35.8701 33.471 33.245 32.7076C32.0097 35.0128 32.3649 39.1144 33.77 41.3747ZM16.1361 43.3507C16.1361 40.4466 16.5067 34.444 14.9626 32.3783C12.9089 32.9621 13.542 34.6685 13.5266 38.306C13.5111 40.9706 13.0015 43.0812 16.1361 43.3507V43.3507Z" fill="#EF4635"/>
</g>
<defs>
<clipPath id="clip0_42438_13">
<rect width="130" height="51" fill="white"/>
</clipPath>
</defs>
</svg>
