<svg width="48" height="51" viewBox="0 0 48 51" fill="none" xmlns="http://www.w3.org/2000/svg">
<g clip-path="url(#clip0_42438_18)">
<path d="M48 25.4999C48 33.919 41.6 40.8 33.6 40.8C25.6762 40.8 19.2 33.919 19.2 25.4999C19.2 17.0809 25.6 10.2 33.5238 10.2C41.6 10.2 48 17.0809 48 25.4999Z" fill="#FFB600"/>
<path d="M33.6 10.2C41.5238 10.2 48 17.0809 48 25.4999C48 33.919 41.6 40.8 33.6 40.8C25.6762 40.8 19.2 33.919 19.2 25.4999" fill="#F7981D"/>
<path d="M33.6 10.2C41.5238 10.2 48 17.0809 48 25.4999C48 33.919 41.6 40.8 33.6 40.8" fill="#FF8500"/>
<path d="M14.2476 10.2C6.4 10.2809 0 17.0809 0 25.4999C0 33.919 6.4 40.8 14.4 40.8C18.1333 40.8 21.4857 39.2619 24.0762 36.8333C24.6095 36.3476 25.0667 35.7809 25.5238 35.2142H22.5524C22.1714 34.7285 21.7905 34.1619 21.4857 33.6761H26.5905C26.8952 33.1904 27.2 32.6238 27.4286 32.0571H20.6476C20.419 31.5714 20.1905 31.0047 20.0381 30.438H27.9619C28.419 28.8999 28.7238 27.2809 28.7238 25.5809C28.7238 24.4476 28.5714 23.3952 28.419 22.3428H19.581C19.6571 21.7761 19.8095 21.2904 19.9619 20.7238H27.8857C27.7333 20.1571 27.5048 19.5904 27.2762 19.1047H20.5714C20.8 18.538 21.1048 18.0523 21.4095 17.4857H26.5143C26.2095 16.919 25.8286 16.3523 25.3714 15.8666H22.5524C23.0095 15.3 23.4667 14.8142 24 14.3285C21.4857 11.819 18.0571 10.3619 14.3238 10.3619C14.3238 10.2 14.3238 10.2 14.2476 10.2Z" fill="#FF5050"/>
<path d="M0 25.4999C0 33.919 6.4 40.7999 14.4 40.7999C18.1333 40.7999 21.4857 39.2618 24.0762 36.8332C24.6095 36.3475 25.0667 35.7809 25.5238 35.2142H22.5524C22.1714 34.7285 21.7905 34.1618 21.4857 33.6761H26.5905C26.8952 33.1904 27.2 32.6237 27.4286 32.0571H20.6476C20.419 31.5713 20.1905 31.0047 20.0381 30.438H27.9619C28.419 28.8999 28.7238 27.2809 28.7238 25.5809C28.7238 24.4475 28.5714 23.3951 28.419 22.3428H19.581C19.6571 21.7761 19.8095 21.2904 19.9619 20.7237H27.8857C27.7333 20.1571 27.5048 19.5904 27.2762 19.1047H20.5714C20.8 18.538 21.1048 18.0523 21.4095 17.4856H26.5143C26.2095 16.919 25.8286 16.3523 25.3714 15.8666H22.5524C23.0095 15.2999 23.4667 14.8142 24 14.3285C21.4857 11.819 18.0571 10.3618 14.3238 10.3618H14.2476" fill="#E52836"/>
<path d="M14.4 40.7999C18.1333 40.7999 21.4857 39.2618 24.0762 36.8332C24.6095 36.3475 25.0667 35.7809 25.5238 35.2142H22.5524C22.1714 34.7285 21.7905 34.1618 21.4857 33.6761H26.5905C26.8952 33.1904 27.2 32.6237 27.4286 32.0571H20.6476C20.419 31.5713 20.1905 31.0047 20.0381 30.438H27.9619C28.419 28.8999 28.7238 27.2809 28.7238 25.5809C28.7238 24.4475 28.5714 23.3951 28.419 22.3428H19.581C19.6571 21.7761 19.8095 21.2904 19.9619 20.7237H27.8857C27.7333 20.1571 27.5048 19.5904 27.2762 19.1047H20.5714C20.8 18.538 21.1048 18.0523 21.4095 17.4856H26.5143C26.2095 16.919 25.8286 16.3523 25.3714 15.8666H22.5524C23.0095 15.2999 23.4667 14.8142 24 14.3285C21.4857 11.819 18.0571 10.3618 14.3238 10.3618H14.2476" fill="#CB2026"/>
<path d="M19.5048 29.3858L19.7333 28.0096C19.6571 28.0096 19.5048 28.0905 19.3524 28.0905C18.819 28.0905 18.7429 27.7667 18.819 27.6048L19.2762 24.7715H20.1143L20.3429 23.2334H19.581L19.7333 22.262H18.2095C18.2095 22.262 17.2952 27.6048 17.2952 28.2524C17.2952 29.2239 17.8286 29.6286 18.5143 29.6286C18.9714 29.6286 19.3524 29.4667 19.5048 29.3858Z" fill="white"/>
<path d="M20.0381 26.7954C20.0381 29.0621 21.4857 29.6288 22.7048 29.6288C23.8476 29.6288 24.3048 29.3859 24.3048 29.3859L24.6095 27.8478C24.6095 27.8478 23.7714 28.2526 23.0095 28.2526C21.3333 28.2526 21.6381 26.9573 21.6381 26.9573H24.7619C24.7619 26.9573 24.9905 25.905 24.9905 25.5002C24.9905 24.4478 24.4571 23.1526 22.781 23.1526C21.181 22.9907 20.0381 24.7716 20.0381 26.7954ZM22.7048 24.4478C23.5429 24.4478 23.3905 25.5002 23.3905 25.5812H21.7143C21.7143 25.5002 21.8667 24.4478 22.7048 24.4478Z" fill="white"/>
<path d="M32.381 29.3858L32.6857 27.6049C32.6857 27.6049 31.9238 28.0096 31.3905 28.0096C30.3238 28.0096 29.8667 27.1192 29.8667 26.1477C29.8667 24.2049 30.781 23.1525 31.8476 23.1525C32.6095 23.1525 33.2191 23.6382 33.2191 23.6382L33.4476 21.9382C33.4476 21.9382 32.5333 21.5334 31.6952 21.5334C29.9429 21.5334 28.1905 23.1525 28.1905 26.2287C28.1905 28.2525 29.1048 29.6287 30.9333 29.6287C31.5429 29.6287 32.381 29.3858 32.381 29.3858Z" fill="white"/>
<path d="M11.1238 22.9905C10.0571 22.9905 9.29524 23.3143 9.29524 23.3143L9.06667 24.6905C9.06667 24.6905 9.75238 24.3667 10.7429 24.3667C11.2762 24.3667 11.7333 24.4476 11.7333 24.9333C11.7333 25.2571 11.6571 25.3381 11.6571 25.3381C11.6571 25.3381 11.2 25.3381 10.9714 25.3381C9.67619 25.3381 8.22857 25.9048 8.22857 27.7667C8.22857 29.2238 9.14286 29.5476 9.67619 29.5476C10.7429 29.5476 11.2 28.819 11.2762 28.819L11.2 29.4667H12.5714L13.1809 25.0143C13.1809 23.0714 11.6571 22.9905 11.1238 22.9905ZM11.4286 26.6333C11.4286 26.8762 11.2762 28.1714 10.3619 28.1714C9.90476 28.1714 9.75238 27.7667 9.75238 27.5238C9.75238 27.119 9.98095 26.5524 11.1238 26.5524C11.3524 26.6333 11.4286 26.6333 11.4286 26.6333Z" fill="white"/>
<path d="M14.6286 29.5478C15.0095 29.5478 16.9143 29.6287 16.9143 27.443C16.9143 25.4192 15.0857 25.824 15.0857 25.0144C15.0857 24.6097 15.3905 24.4478 15.9238 24.4478C16.1524 24.4478 16.9905 24.5287 16.9905 24.5287L17.2191 23.0716C17.2191 23.0716 16.6857 22.9097 15.7714 22.9097C14.6286 22.9097 13.4857 23.3954 13.4857 25.0144C13.4857 26.8763 15.3905 26.7144 15.3905 27.443C15.3905 27.9287 14.8571 28.0097 14.4762 28.0097C13.7905 28.0097 13.1048 27.7668 13.1048 27.7668L12.8762 29.224C12.9524 29.3859 13.3333 29.5478 14.6286 29.5478Z" fill="white"/>
<path d="M45.0286 21.6953L44.7238 23.881C44.7238 23.881 44.1143 23.0715 43.2762 23.0715C41.9048 23.0715 40.6857 24.8525 40.6857 26.9572C40.6857 28.2525 41.2952 29.6286 42.5905 29.6286C43.5048 29.6286 44.0381 28.981 44.0381 28.981L43.9619 29.5477H45.4857L46.6286 21.7763L45.0286 21.6953ZM44.3429 25.9858C44.3429 26.8763 43.9619 28.0096 43.1238 28.0096C42.5905 28.0096 42.2857 27.5239 42.2857 26.7144C42.2857 25.4191 42.819 24.6096 43.5048 24.6096C44.0381 24.6096 44.3429 25.0144 44.3429 25.9858Z" fill="white"/>
<path d="M2.81905 29.4667L3.73333 23.6382L3.88572 29.4667H4.95238L6.93334 23.6382L6.09524 29.4667H7.69524L8.91429 21.6953H6.4L4.87619 26.4715L4.8 21.6953H2.59048L1.37143 29.4667H2.81905Z" fill="white"/>
<path d="M26.4381 29.4669C26.8952 26.7954 26.9714 24.6097 28.0381 25.0145C28.1905 23.9621 28.419 23.5573 28.5714 23.1526C28.5714 23.1526 28.4952 23.1526 28.2667 23.1526C27.581 23.1526 27.0476 24.124 27.0476 24.124L27.2 23.2335H25.7524L24.7619 29.5478H26.4381V29.4669Z" fill="white"/>
<path d="M35.8857 22.9905C34.8191 22.9905 34.0571 23.3143 34.0571 23.3143L33.8286 24.6905C33.8286 24.6905 34.5143 24.3667 35.5048 24.3667C36.0381 24.3667 36.4952 24.4476 36.4952 24.9333C36.4952 25.2571 36.4191 25.3381 36.4191 25.3381C36.4191 25.3381 35.9619 25.3381 35.7333 25.3381C34.4381 25.3381 32.9905 25.9048 32.9905 27.7667C32.9905 29.2238 33.9048 29.5476 34.4381 29.5476C35.5048 29.5476 35.9619 28.819 36.0381 28.819L35.9619 29.4667H37.3333L37.9429 25.0143C38.0191 23.0714 36.4191 22.9905 35.8857 22.9905ZM36.2667 26.6333C36.2667 26.8762 36.1143 28.1714 35.2 28.1714C34.7429 28.1714 34.5905 27.7667 34.5905 27.5238C34.5905 27.119 34.8191 26.5524 35.9619 26.5524C36.1905 26.6333 36.1905 26.6333 36.2667 26.6333Z" fill="white"/>
<path d="M39.2381 29.4669C39.6952 26.7954 39.7714 24.6097 40.8381 25.0145C40.9905 23.9621 41.219 23.5573 41.3714 23.1526C41.3714 23.1526 41.2952 23.1526 41.0667 23.1526C40.381 23.1526 39.8476 24.124 39.8476 24.124L40 23.2335H38.5524L37.5619 29.5478H39.2381V29.4669Z" fill="white"/>
<path d="M17.1429 28.2524C17.1429 29.2239 17.6762 29.6286 18.3619 29.6286C18.8952 29.6286 19.3524 29.4667 19.5048 29.3858L19.7333 28.0096C19.6571 28.0096 19.5048 28.0905 19.3524 28.0905C18.819 28.0905 18.7429 27.7667 18.8191 27.6048L19.2762 24.7715H20.1143L20.3429 23.2334H19.581L19.7333 22.262" fill="#DCE5E5"/>
<path d="M20.8 26.7954C20.8 29.0621 21.4857 29.6288 22.7048 29.6288C23.8476 29.6288 24.3048 29.3859 24.3048 29.3859L24.6095 27.8478C24.6095 27.8478 23.7714 28.2526 23.0095 28.2526C21.3333 28.2526 21.6381 26.9573 21.6381 26.9573H24.7619C24.7619 26.9573 24.9905 25.905 24.9905 25.5002C24.9905 24.4478 24.4571 23.1526 22.781 23.1526C21.181 22.9907 20.8 24.7716 20.8 26.7954ZM22.7048 24.4478C23.5429 24.4478 23.6952 25.5002 23.6952 25.5812H21.7143C21.7143 25.5002 21.8667 24.4478 22.7048 24.4478Z" fill="#DCE5E5"/>
<path d="M32.381 29.3858L32.6857 27.6049C32.6857 27.6049 31.9238 28.0096 31.3905 28.0096C30.3238 28.0096 29.8667 27.1192 29.8667 26.1477C29.8667 24.2049 30.781 23.1525 31.8476 23.1525C32.6095 23.1525 33.2191 23.6382 33.2191 23.6382L33.4476 21.9382C33.4476 21.9382 32.5333 21.5334 31.6952 21.5334C29.9429 21.5334 28.9524 23.1525 28.9524 26.2287C28.9524 28.2525 29.1048 29.6287 30.9333 29.6287C31.5429 29.6287 32.381 29.3858 32.381 29.3858Z" fill="#DCE5E5"/>
<path d="M9.06667 24.7716C9.06667 24.7716 9.75238 24.4478 10.7429 24.4478C11.2762 24.4478 11.7333 24.5288 11.7333 25.0145C11.7333 25.3383 11.6571 25.4193 11.6571 25.4193C11.6571 25.4193 11.2 25.4193 10.9714 25.4193C9.67619 25.4193 8.22857 25.9859 8.22857 27.8478C8.22857 29.305 9.14286 29.6288 9.67619 29.6288C10.7429 29.6288 11.2 28.9002 11.2762 28.9002L11.2 29.5478H12.5714L13.1809 25.0954C13.1809 23.2335 11.6571 23.1526 11.0476 23.1526L9.06667 24.7716ZM12.1905 26.6335C12.1905 26.8764 11.2762 28.1716 10.3619 28.1716C9.90476 28.1716 9.75238 27.7669 9.75238 27.524C9.75238 27.1193 9.98095 26.5526 11.1238 26.5526C11.3524 26.6335 12.1905 26.6335 12.1905 26.6335Z" fill="#DCE5E5"/>
<path d="M12.9524 29.3859C12.9524 29.3859 13.4095 29.5478 14.7048 29.5478C15.0857 29.5478 16.9905 29.6287 16.9905 27.443C16.9905 25.4192 15.1619 25.824 15.1619 25.0144C15.1619 24.6097 15.4667 24.4478 16 24.4478C16.2286 24.4478 17.0667 24.5287 17.0667 24.5287L17.2952 23.0716C17.2952 23.0716 16.7619 22.9097 15.8476 22.9097C14.7048 22.9097 14.3238 23.3954 14.3238 25.0144C14.3238 26.8763 15.4667 26.7144 15.4667 27.443C15.4667 27.9287 14.9333 28.0097 14.5524 28.0097" fill="#DCE5E5"/>
<path d="M44.7238 23.8811C44.7238 23.8811 44.1143 23.0716 43.2762 23.0716C41.9048 23.0716 41.4476 24.8526 41.4476 26.9573C41.4476 28.2526 41.2952 29.6287 42.5905 29.6287C43.5048 29.6287 44.0381 28.9811 44.0381 28.9811L43.9619 29.5478H45.4857L46.6286 21.7764L44.7238 23.8811ZM44.6476 25.9859C44.6476 26.8764 43.9619 28.0097 43.1238 28.0097C42.5905 28.0097 42.2857 27.524 42.2857 26.7145C42.2857 25.4192 42.819 24.6097 43.5048 24.6097C44.0381 24.6097 44.6476 25.0145 44.6476 25.9859Z" fill="#DCE5E5"/>
<path d="M2.81905 29.4667L3.73333 23.6382L3.88572 29.4667H4.95238L6.93334 23.6382L6.09524 29.4667H7.69524L8.91429 21.6953H7.00953L4.87619 26.4715L4.8 21.6953H3.96191L1.37143 29.4667H2.81905Z" fill="#DCE5E5"/>
<path d="M24.8381 29.4669H26.4381C26.8952 26.7954 26.9714 24.6097 28.0381 25.0145C28.1905 23.9621 28.4191 23.5574 28.5714 23.1526C28.5714 23.1526 28.4952 23.1526 28.2667 23.1526C27.581 23.1526 27.0476 24.124 27.0476 24.124L27.2 23.2335" fill="#DCE5E5"/>
<path d="M33.8286 24.7716C33.8286 24.7716 34.5143 24.4478 35.5048 24.4478C36.0381 24.4478 36.4952 24.5288 36.4952 25.0145C36.4952 25.3383 36.4191 25.4193 36.4191 25.4193C36.4191 25.4193 35.9619 25.4193 35.7333 25.4193C34.4381 25.4193 32.9905 25.9859 32.9905 27.8478C32.9905 29.305 33.9048 29.6288 34.4381 29.6288C35.5048 29.6288 35.9619 28.9002 36.0381 28.9002L35.9619 29.5478H37.3333L37.9429 25.0954C37.9429 23.2335 36.4191 23.1526 35.8095 23.1526L33.8286 24.7716ZM36.9524 26.6335C36.9524 26.8764 36.0381 28.1716 35.1238 28.1716C34.6667 28.1716 34.5143 27.7669 34.5143 27.524C34.5143 27.1193 34.7429 26.5526 35.8857 26.5526C36.1905 26.6335 36.9524 26.6335 36.9524 26.6335Z" fill="#DCE5E5"/>
<path d="M37.6381 29.4669H39.2381C39.6952 26.7954 39.7714 24.6097 40.8381 25.0145C40.9905 23.9621 41.2191 23.5574 41.3714 23.1526C41.3714 23.1526 41.2952 23.1526 41.0667 23.1526C40.381 23.1526 39.8476 24.124 39.8476 24.124L40 23.2335" fill="#DCE5E5"/>
</g>
<defs>
<clipPath id="clip0_42438_18">
<rect width="48" height="51" fill="white"/>
</clipPath>
</defs>
</svg>
