<svg width="48" height="51" viewBox="0 0 48 51" fill="none" xmlns="http://www.w3.org/2000/svg">
<g clip-path="url(#clip0_42438_47)">
<path d="M17.6 32.8261L20.0381 18.2546H23.8476L21.4857 32.8261H17.6Z" fill="#F9F6F1"/>
<path d="M17.6 32.8261L20.7238 18.2546H23.8476L21.4857 32.8261H17.6Z" fill="#F9F6F1"/>
<path d="M35.2762 18.4167C34.5143 18.0929 33.2952 17.769 31.7714 17.769C27.9619 17.769 25.219 19.7929 25.219 22.7071C25.219 24.8929 27.1238 26.0262 28.6476 26.7548C30.1714 27.4833 30.6286 27.969 30.6286 28.6167C30.6286 29.5881 29.4095 30.0738 28.3429 30.0738C26.819 30.0738 25.981 29.831 24.6857 29.2643L24.1524 29.0214L23.619 32.3405C24.5333 32.7452 26.2095 33.15 27.9619 33.15C32 33.15 34.6667 31.1262 34.6667 28.05C34.6667 26.35 33.6762 25.0548 31.3905 24.0024C30.0191 23.2738 29.181 22.869 29.181 22.1405C29.181 21.4929 29.8667 20.8452 31.3905 20.8452C32.6857 20.8452 33.6 21.0881 34.2857 21.4119L34.6667 21.5738L35.2762 18.4167Z" fill="#F9F6F1"/>
<path d="M35.2762 18.4167C34.5143 18.0929 33.2952 17.769 31.7714 17.769C27.9619 17.769 25.9048 19.7929 25.9048 22.7071C25.9048 24.8929 27.1238 26.0262 28.6476 26.7548C30.1714 27.4833 30.6286 27.969 30.6286 28.6167C30.6286 29.5881 29.4095 30.0738 28.3429 30.0738C26.819 30.0738 25.981 29.831 24.6857 29.2643L24.1524 29.0214L23.619 32.3405C24.5333 32.7452 26.2095 33.15 27.9619 33.15C32 33.15 34.6667 31.1262 34.6667 28.05C34.6667 26.35 33.6762 25.0548 31.3905 24.0024C30.0191 23.2738 29.181 22.869 29.181 22.1405C29.181 21.4929 29.8667 20.8452 31.3905 20.8452C32.6857 20.8452 33.6 21.0881 34.2857 21.4119L34.6667 21.5738L35.2762 18.4167Z" fill="#F9F6F1"/>
<path d="M41.8286 18.2546C40.9143 18.2546 40.2286 18.3356 39.8476 19.307L34.1333 32.8261H38.2476L39.0095 30.3975H43.8857L44.3429 32.8261H48L44.8 18.2546H41.8286V18.2546ZM40.0762 27.9689C40.3048 27.2404 41.6 23.6784 41.6 23.6784C41.6 23.6784 41.9048 22.788 42.1333 22.2213L42.3619 23.5975C42.3619 23.5975 43.1238 27.2404 43.2762 28.0499H40.0762V27.9689Z" fill="#F9F6F1"/>
<path d="M42.7429 18.2546C41.8286 18.2546 41.1429 18.3356 40.7619 19.307L34.1333 32.8261H38.2476L39.0095 30.3975H43.8857L44.3429 32.8261H48L44.8 18.2546H42.7429V18.2546ZM40.0762 27.9689C40.381 27.1594 41.6 23.6784 41.6 23.6784C41.6 23.6784 41.9048 22.788 42.1333 22.2213L42.3619 23.5975C42.3619 23.5975 43.1238 27.2404 43.2762 28.0499H40.0762V27.9689Z" fill="#F9F6F1"/>
<path d="M10.5905 28.4547L10.2095 26.35C9.52381 23.9214 7.31429 21.25 4.87619 19.9547L8.30476 32.9071H12.419L18.5905 18.3357H14.4762L10.5905 28.4547Z" fill="#F9F6F1"/>
<path d="M10.5905 28.4547L10.2095 26.35C9.52381 23.9214 7.31429 21.25 4.87619 19.9547L8.30476 32.9071H12.419L18.5905 18.3357H15.2381L10.5905 28.4547Z" fill="#F9F6F1"/>
<path d="M0 18.2546L0.685714 18.4165C5.5619 19.6308 8.91428 22.707 10.2095 26.3499L8.8381 19.4689C8.60952 18.4975 7.92381 18.2546 7.08571 18.2546H0V18.2546Z" fill="#FFBC00"/>
<path d="M0 18.2546C4.87619 19.4689 8.91428 22.6261 10.2095 26.2689L8.91429 20.5213C8.68571 19.5499 7.92381 18.9832 7.08571 18.9832L0 18.2546Z" fill="#F7981D"/>
<path d="M0 18.2546C4.87619 19.4689 8.91428 22.6261 10.2095 26.2689L9.29524 23.1118C9.06667 22.1404 8.7619 21.1689 7.69524 20.7642L0 18.2546Z" fill="#ED7C00"/>
<path d="M14.4 27.969L11.8095 25.2166L10.5905 28.2928L10.2857 26.269C9.6 23.8404 7.39047 21.169 4.95238 19.8738L8.38095 32.8262H12.4952L14.4 27.969Z" fill="#F9F6F1"/>
<path d="M21.4857 32.8261L18.2095 29.2642L17.6 32.8261H21.4857Z" fill="#F9F6F1"/>
<path d="M30.2476 27.8071C30.5524 28.1309 30.7048 28.3738 30.6286 28.6976C30.6286 29.669 29.4095 30.1547 28.3429 30.1547C26.819 30.1547 25.9809 29.9119 24.6857 29.3452L24.1524 29.1024L23.619 32.4214C24.5333 32.8262 26.2095 33.2309 27.9619 33.2309C30.4 33.2309 32.3809 32.5024 33.5238 31.2071L30.2476 27.8071Z" fill="#F9F6F1"/>
<path d="M34.6667 32.8262H38.2476L39.0095 30.3976H43.8857L44.3429 32.8262H48L46.7048 26.9167L42.1333 22.2214L42.3619 23.5167C42.3619 23.5167 43.1238 27.1595 43.2762 27.9691H40.0762C40.3809 27.1595 41.6 23.6786 41.6 23.6786C41.6 23.6786 41.9048 22.7881 42.1333 22.2214" fill="#F9F6F1"/>
</g>
<defs>
<clipPath id="clip0_42438_47">
<rect width="48" height="51" fill="white"/>
</clipPath>
</defs>
</svg>
